<svg xmlns="http://www.w3.org/2000/svg" data-name="Layer 1" viewBox="0 0 128 128" id="events"><path d="M119,79a9,9,0,0,0-8,5c-2.47-4.83-4.55-12.33-5-24v-.27a9,9,0,1,0-12,0V74.81L88,61.57V33a87.8,87.8,0,0,0,12.21,6.79,2,2,0,1,0,1.58-3.68,87.18,87.18,0,0,1-14.63-8.54C78.4,21.36,72,14.45,68.28,7.08A36.62,36.62,0,0,1,65.9,1.39a2,2,0,0,0-3.8,0,37.14,37.14,0,0,1-2.38,5.7C56,14.45,49.6,21.36,40.83,27.63a87.22,87.22,0,0,1-14.62,8.53,2,2,0,1,0,1.58,3.68A87.8,87.8,0,0,0,40,33V61.57L34,74.81V59.69a9,9,0,1,0-12,0V60c-.42,11.67-2.5,19.17-5,24A9,9,0,1,0,3,94.69V126a2,2,0,0,0,2,2s24.87,0,25.23,0c1.15,0,2.23-.24,2.63-1.27L56.58,66H71.42l23.72,60.73A2,2,0,0,0,97,128h26a2,2,0,0,0,2-2V94.69A9,9,0,0,0,119,79ZM9,93a5,5,0,1,1,5-5A5,5,0,0,1,9,93Zm6,23.74V94.69a9,9,0,0,0,2.67-4.32,31.68,31.68,0,0,0,5.23-10.19A2,2,0,0,0,24,80.5h7.42ZM28,58a5,5,0,1,1,5-5A5,5,0,0,1,28,58ZM62.82,24.82,64,21l1.18,3.82H69l-3.09,2.36L67.09,31,64,28.64,60.91,31l1.18-3.82L59,24.82ZM71,62H57V49a7,7,0,0,1,14,0Zm24-9a5,5,0,1,1,5,5A5,5,0,0,1,95,53Zm18,63.74L96.58,80.5H104a2,2,0,0,0,1.09-.33,31.68,31.68,0,0,0,5.23,10.19A9,9,0,0,0,113,94.69ZM119,93a5,5,0,1,1,5-5A5,5,0,0,1,119,93Z"></path><polygon points="90.53 7.34 88.08 4.94 88.46 8.35 86.07 10.79 89.47 10.41 91.92 12.81 91.54 9.41 93.93 6.96 90.53 7.34"></polygon><polygon points="104.84 21.75 104.49 25.15 101.62 27.03 105.03 27.39 106.91 30.25 107.26 26.85 110.13 24.97 106.72 24.61 104.84 21.75"></polygon><polygon points="116.05 10.42 113.82 7.82 114.42 4.45 111.82 6.68 108.45 6.08 110.68 8.68 110.08 12.05 112.68 9.82 116.05 10.42"></polygon><polygon points="6.48 11.12 9.65 12.4 8 9.4 9.27 6.22 6.27 7.88 3.1 6.6 4.75 9.6 3.48 12.78 6.48 11.12"></polygon><polygon points="23.54 22.44 21.49 25.19 18.07 25.34 20.81 27.39 20.96 30.81 23.01 28.06 26.43 27.91 23.69 25.86 23.54 22.44"></polygon><polygon points="32.41 11.07 30.2 8.46 30.82 5.09 28.21 7.3 24.84 6.68 27.05 9.29 26.43 12.66 29.04 10.45 32.41 11.07"></polygon></svg>