<svg xmlns="http://www.w3.org/2000/svg" width="655.359" height="655.359" fill-rule="evenodd" clip-rule="evenodd" image-rendering="optimizeQuality" shape-rendering="geometricPrecision" text-rendering="geometricPrecision" viewBox="0 0 173.397 173.397" id="filming-location"><path d="M86.6984 12.4455c-24.6947,0 -44.7895,20.0908 -44.7895,44.7882 0,10.4722 22.272,55.5235 35.575,82.4391 3.6735,7.4281 6.9516,14.058 9.2131,18.8317 2.265,-4.7737 5.5442,-11.4066 9.2164,-18.8347 13.3062,-26.9157 35.5749,-71.9638 35.5749,-82.4361 0.0007,-24.6974 -20.0938,-44.7882 -44.7899,-44.7882zm0 152.07c-0.7003,0 -1.3347,-0.4115 -1.6224,-1.0489 -2.0907,-4.6251 -6.1195,-12.7771 -10.7849,-22.2131 -18.942,-38.3192 -35.9462,-73.5817 -35.9462,-84.02 0,-26.6619 21.6904,-48.3522 48.3521,-48.3522 26.663,0 48.3553,21.6904 48.3553,48.3522 0.0007,10.4383 -17.003,45.6978 -35.9462,84.017 -4.6644,9.439 -8.6932,17.5879 -10.785,22.2161 -0.2862,0.6374 -0.9216,1.0489 -1.6227,1.0489z"></path><path d="M60.0797 39.1229c-1.7388,0 -3.1538,1.4139 -3.1538,3.1525l0.0005 23.1196c0,1.7387 1.4134,3.1526 3.1521,3.1526l36.1382 0 0 -29.4247 -36.137 0zm37.919 32.9887l-37.919 0c-3.7032,0 -6.7178,-3.0134 -6.7178,-6.7166l0.0005 -23.1196c0,-3.7032 3.0129,-6.7165 6.7161,-6.7165l37.9202 0c0.9843,0 1.7818,0.7982 1.7818,1.782l0.0002 32.9887c0,0.9868 -0.7984,1.782 -1.782,1.782z"></path><path d="M105.04 46.2633l-7.0417 0c-0.9829,0 -1.7822,-0.7982 -1.7822,-1.782 0.0002,-0.9839 0.7982,-1.782 1.7822,-1.782l7.0417 0c0.9843,0 1.7816,0.7981 1.7816,1.782 0.0004,0.9838 -0.7982,1.782 -1.7816,1.782zm0 18.711l-7.0417 0c-0.9829,0 -1.7822,-0.7982 -1.7822,-1.782 0.0002,-0.9838 0.7982,-1.782 1.7822,-1.782l7.0417 0c0.9843,0 1.7816,0.7982 1.7816,1.782 0.0004,0.9838 -0.7982,1.782 -1.7816,1.782z"></path><path d="M106.822 62.0042l9.6492 4.0281 0-25.0284-9.6492 4.6004 0 16.3999zm11.4312 8.4831c-.2309 0-.4642-.0464-.687-.1361l-13.2125-5.5161c-.6655-.2754-1.0961-.925-1.0961-1.6428l.0004-18.711c0-.6869.3925-1.3117 1.0144-1.6087l13.2139-6.302c.5538-.2631 1.1996-.2258 1.7195.1021.5176.3248.8293.894.8293 1.5066l.0001 30.526c0 .5972-.2972 1.154-.7922 1.4819-.2964.1981-.6434.3001-.9898.3001zM63.3027 60.5657l12.6507 0 0-13.4578-12.6507 0 0 13.4578zm14.4327 3.564l-16.2147 0c-.9872 0-1.7824-.7982-1.7824-1.782l.0004-17.0218c0-.9838.7947-1.782 1.7816-1.782l16.2151 0c.9829 0 1.7812.7982 1.7812 1.782l.0008 17.0218c0 .9837-.7991 1.782-1.782 1.782zM91.6224 45.8735l-7.5332 0c-.9827 0-1.7823-.7983-1.7823-1.782.0004-.9838.7984-1.782 1.7823-1.782l7.5332 0c.9843 0 1.782.7982 1.782 1.782 0 .9837-.798 1.782-1.782 1.782zM91.6224 65.3641l-7.5332 0c-.9827 0-1.7823-.7982-1.7823-1.782.0004-.9838.7984-1.782 1.7823-1.782l7.5332 0c.9843 0 1.782.7982 1.782 1.782 0 .9838-.798 1.782-1.782 1.782zM91.6224 52.3703l-7.5332 0c-.9827 0-1.7823-.7981-1.7823-1.7819.0004-.9839.7984-1.782 1.7823-1.782l7.5332-.0001c.9843 0 1.782.7982 1.782 1.7821 0 .9837-.798 1.782-1.782 1.7819zM91.6224 58.8672l-7.5332 0c-.9827 0-1.7823-.7982-1.7823-1.782.0004-.9838.7984-1.782 1.7823-1.782l7.5332 0c.9843 0 1.782.7983 1.782 1.782 0 .9838-.798 1.782-1.782 1.782z"></path><rect width="173.397" height="173.397" fill="none"></rect></svg>