<svg xmlns="http://www.w3.org/2000/svg" viewBox="0 0 32 32" id="restaurants-location"><path d="M23 2H9a5 5 0 0 0-5 5v10a5 5 0 0 0 5 5h2.38l3.73 7.45A1 1 0 0 0 16 30a1 1 0 0 0 .89-.54L20.72 22H23a5 5 0 0 0 5-5V7a5 5 0 0 0-5-5Zm3 15a3 3 0 0 1-3 3h-2.89a.7.7 0 0 0-.11 0 .78.78 0 0 0-.21 0 .83.83 0 0 0-.16.09.57.57 0 0 0-.16.11 1 1 0 0 0-.13.16.87.87 0 0 0-.09.11L16 26.79l-3.12-6.24a.87.87 0 0 0-.09-.11.7.7 0 0 0-.13-.17s-.1-.07-.15-.11a1.4 1.4 0 0 0-.17-.09h-.21A.7.7 0 0 0 12 20H9a3 3 0 0 1-3-3V7a3 3 0 0 1 3-3h14a3 3 0 0 1 3 3ZM19.5 6c-1.8 0-3 2.41-3 4a3 3 0 0 0 2 2.82V17a1 1 0 0 0 2 0v-4.2a3.07 3.07 0 0 0 2-2.8c0-1.59-1.2-4-3-4Zm0 5a1 1 0 0 1-1-1c0-.82.68-2 1-2s1 1.18 1 2a1.07 1.07 0 0 1-1 1Zm-5-4v4a1 1 0 0 1-1 1H13v5a1 1 0 0 1-2 0v-5h-.5a1 1 0 0 1-1-1V7a1 1 0 0 1 2 0v3h1V7a1 1 0 0 1 2 0Z" data-name="08 restaurants"></path></svg>