<svg xmlns="http://www.w3.org/2000/svg" viewBox="0 0 208.493 237.956" id="rockstar"><path d="M86.887 87.888c-4.453-4.236-6.875-9.8-7.293-15.494-2.222 1.02-4.818 2.943-7.506 4.938-4.184 3.105-8.777 6.502-13.75 7.902.176 10.109-.308 23.274-3.527 29.769-4.623 9.328-10.733 8.032-17.256 20.39-3.164 5.995-2.058 13.736 1.508 20.172l16.626 38.277-38.691 24.042c-4.691 2.914-6.131 9.08-3.216 13.771a9.993 9.993 0 0 0 13.771 3.216l46.026-28.6a10 10 0 0 0 3.894-12.477l-14.319-32.967c.182-.141.365-.263.547-.396.404.314.829.61 1.29.865l37.086 20.543 24.617 50.497a10 10 0 0 0 8.996 5.62c1.471 0 2.964-.326 4.375-1.013 4.964-2.42 7.027-8.407 4.607-13.37l-26-53.334a10 10 0 0 0-4.143-4.366l-33.667-18.65c3.404-9.843 7.264-17.818 11.15-24.24.447.05.9.08 1.36.08 6.78 0 12.275-5.497 12.275-12.276 0-.508-.04-1.005-.1-1.496l7.865 26.469a6.5 6.5 0 0 0 10.121 3.356l26.488-19.786 5.506 8.775 5.48-3.439-7.204-11.481a6.464 6.464 0 0 0-3.62-5.768l-3.313-5.281a8.376 8.376 0 0 1-2.396 2.268 8.377 8.377 0 0 1-3.084 1.17l1.699 2.707-19.87 14.843-6.928-23.317a6.494 6.494 0 0 0-.657-1.48l.064-.03s-1.407-2.167-4.567-5.205c-8.153 2.832-17.572 1.144-24.244-5.204zM2.752 33.914 53.809 69.96c1.675-1.059 3.582-2.465 5.765-4.342 1.781-1.532 3.503-2.806 5.165-3.854l-54.49-38.47a6.5 6.5 0 0 0-7.498 10.62z"></path><circle cx="139.997" cy="97.267" r="6.396" transform="rotate(-45.001 139.997 97.27)"></circle><path d="M39.99 71.974c-2.721-3.638-2.38 10.41 12.84 11.588 9.996.774 19.308-10.859 26.71-13.633a23.775 23.775 0 0 1 2.233-9.416c-5.427-1.456-12.276-.393-20.7 6.85-12.717 10.933-18.362 8.248-21.083 4.61z"></path><circle cx="103.291" cy="70.645" r="21.5" transform="rotate(-.81 103.612 70.896)"></circle><path d="m127.844 51.525 34.167-31.432-2.271-3.94-33.036 33.58zM131.352 59.703l45.501-9.222.095-4.548-45.644 11.647zM137.05 2.49 133.242 0l-14.294 44.886 1.825 1.082zM183.135 92.412c1.441-.815 2.263-2.214 2.157-3.454v-11.48l13.309-3.66v7.243c-.97-.325-2.211-.197-3.34.442-1.825 1.032-2.663 3.001-1.873 4.398s2.91 1.692 4.734.66c1.32-.748 2.12-1.985 2.165-3.142h.001v-.029a2.506 2.506 0 0 0 0-.162V66.192l-16.683 4.588v16.13c-.969-.32-2.205-.192-3.331.445-1.825 1.032-2.664 3.001-1.874 4.398.79 1.396 2.91 1.692 4.735.66zm2.157-20.346 13.309-3.66v3.663l-13.309 3.66v-3.663zm9.038 38.964c-1.985.676-3.174 2.456-2.656 3.975.517 1.519 2.545 2.202 4.53 1.526 1.567-.534 2.634-1.756 2.76-2.995l2.755-14.595 5.718 2.222.611-1.573-.039-.015.484-1.033-7.733-3.618-3.074 16.288c-.893-.495-2.132-.599-3.356-.182zm-32.89-9.867c1.18 1.087 3.288.718 4.708-.824 1.122-1.217 1.475-2.801.994-3.95l-4.554-14.137 6.086-.78-.215-1.674-.042.006-.068-1.139-8.522.517 5.082 15.776c-1.021-.008-2.159.493-3.035 1.445-1.42 1.542-1.615 3.673-.435 4.76z"></path></svg>