<svg xmlns="http://www.w3.org/2000/svg" width="32" height="32" fill="none" viewBox="0 0 32 32" id="best-seller"><path fill="#000" fill-rule="evenodd" d="M16.8249 2.43468C16.6384 2.16262 16.3298 2 16 2 15.6702 2 15.3616 2.16262 15.1752 2.43468L14.3182 3.68512 12.8641 4.11376C12.5478 4.20701 12.2977 4.45026 12.1958 4.76393 12.0939 5.0776 12.1532 5.42136 12.3543 5.68275L13.2787 6.8842 13.2371 8.39956C13.228 8.72925 13.3821 9.04221 13.6489 9.23607 13.9157 9.42993 14.261 9.47976 14.5717 9.36925L16 8.86134 17.4283 9.36925C17.7391 9.47976 18.0843 9.42993 18.3512 9.23607 18.618 9.04221 18.7721 8.72925 18.763 8.39956L18.7213 6.8842 19.6458 5.68275C19.8469 5.42136 19.9062 5.0776 19.8043 4.76393 19.7023 4.45026 19.4523 4.20701 19.136 4.11376L17.6819 3.68512 16.8249 2.43468zM15.7669 5.10909L16 4.76891 16.2332 5.10909C16.3632 5.29882 16.5547 5.43793 16.7753 5.50296L17.1709 5.61957 16.9194 5.94643C16.7791 6.12872 16.706 6.3538 16.7123 6.58372L16.7236 6.99598 16.3351 6.8578C16.1184 6.78073 15.8817 6.78073 15.665 6.8578L15.2764 6.99598 15.2878 6.58372C15.2941 6.3538 15.2209 6.12872 15.0807 5.94643L14.8292 5.61957 15.2248 5.50296C15.4454 5.43793 15.6369 5.29882 15.7669 5.10909zM4 13C3.44772 13 3 13.4477 3 14V18C3 18.8885 3.38625 19.6868 4 20.2361V25C2.89543 25 2 25.8954 2 27V28C2 29.1046 2.89543 30 4 30H28C29.1046 30 30 29.1046 30 28V27C30 25.8954 29.1046 25 28 25V20.2361C28.6137 19.6868 29 18.8885 29 18V14C29 13.4477 28.5523 13 28 13H4zM6 25V21C6.76835 21 7.46924 20.7111 8 20.2361 8.53076 20.7111 9.23165 21 10 21 10.3506 21 10.6872 20.9398 11 20.8293V25H6zM10 19C9.44771 19 9 18.5523 9 18V15H11V18C11 18.5523 10.5523 19 10 19zM7 18V15H5V18C5 18.5523 5.44772 19 6 19 6.55229 19 7 18.5523 7 18zM13 18V15H15V18C15 18.5523 14.5523 19 14 19 13.4477 19 13 18.5523 13 18zM17 18V15H19V18C19 18.5523 18.5523 19 18 19 17.4477 19 17 18.5523 17 18zM21 18V15H23V18C23 18.5523 22.5523 19 22 19 21.4477 19 21 18.5523 21 18zM25 18V15H27V18C27 18.5523 26.5523 19 26 19 25.4477 19 25 18.5523 25 18zM22 21C22.7684 21 23.4692 20.7111 24 20.2361 24.5308 20.7111 25.2316 21 26 21V22H13V20.8293C13.3128 20.9398 13.6494 21 14 21 14.7684 21 15.4692 20.7111 16 20.2361 16.5308 20.7111 17.2316 21 18 21 18.7684 21 19.4692 20.7111 20 20.2361 20.5308 20.7111 21.2316 21 22 21zM13 24H26V25H13V24zM4 28V27H28V28H4zM25 5C25.3298 5 25.6385 5.16262 25.8249 5.43468L26.6819 6.68512 28.136 7.11376C28.4523 7.20701 28.7023 7.45026 28.8043 7.76393 28.9062 8.0776 28.8469 8.42136 28.6458 8.68275L27.7213 9.8842 27.763 11.3996C27.7721 11.7292 27.618 12.0422 27.3512 12.2361 27.0843 12.4299 26.7391 12.4798 26.4283 12.3693L25 11.8613 23.5717 12.3693C23.261 12.4798 22.9157 12.4299 22.6489 12.2361 22.3821 12.0422 22.228 11.7292 22.2371 11.3996L22.2787 9.8842 21.3543 8.68275C21.1532 8.42136 21.0939 8.0776 21.1958 7.76393 21.2977 7.45026 21.5478 7.20701 21.8641 7.11376L23.3182 6.68512 24.1752 5.43468C24.3616 5.16262 24.6702 5 25 5zM25 7.76891L24.7669 8.10909C24.6369 8.29882 24.4454 8.43793 24.2248 8.50296L23.8292 8.61957 24.0807 8.94643C24.2209 9.12872 24.2941 9.3538 24.2878 9.58372L24.2764 9.99598 24.665 9.8578C24.8817 9.78073 25.1184 9.78073 25.3351 9.8578L25.7236 9.99598 25.7123 9.58372C25.706 9.3538 25.7791 9.12872 25.9194 8.94643L26.1709 8.61957 25.7753 8.50296C25.5547 8.43793 25.3632 8.29882 25.2332 8.10909L25 7.76891zM7.8249 5.43468C7.63845 5.16262 7.32984 5 7.00003 5 6.67021 5 6.36161 5.16262 6.17516 5.43468L5.31817 6.68512 3.86411 7.11376C3.54775 7.20701 3.29772 7.45026 3.1958 7.76393 3.09389 8.0776 3.15319 8.42136 3.35431 8.68275L4.27873 9.8842 4.23705 11.3996C4.22798 11.7292 4.38206 12.0422 4.64889 12.2361 4.91571 12.4299 5.26097 12.4798 5.57172 12.3693L7.00003 11.8613 8.42834 12.3693C8.73909 12.4798 9.08435 12.4299 9.35117 12.2361 9.618 12.0422 9.77208 11.7292 9.76301 11.3996L9.72133 9.8842 10.6458 8.68275C10.8469 8.42136 10.9062 8.0776 10.8043 7.76393 10.7023 7.45026 10.4523 7.20701 10.136 7.11376L8.68189 6.68512 7.8249 5.43468zM6.76689 8.10909L7.00003 7.76891 7.23317 8.10909C7.3632 8.29882 7.55466 8.43793 7.77529 8.50296L8.17087 8.61957 7.91938 8.94643C7.77912 9.12872 7.70599 9.3538 7.71231 9.58372L7.72365 9.99598 7.33508 9.8578C7.11836 9.78073 6.8817 9.78073 6.66498 9.8578L6.27641 9.99598 6.28775 9.58372C6.29407 9.3538 6.22094 9.12872 6.08068 8.94643L5.82919 8.61957 6.22477 8.50296C6.4454 8.43793 6.63686 8.29882 6.76689 8.10909z" clip-rule="evenodd"></path></svg>