<svg xmlns="http://www.w3.org/2000/svg" enable-background="new 0 0 128 128" viewBox="0 0 128 128" id="videos-gallery"><path d="M76.4,58.2l-15.1-8.7c-2-1.2-4.5-1.2-6.5,0c-2,1.2-3.3,3.3-3.3,5.6v17.5c0,2.4,1.2,4.5,3.3,5.6c1,0.6,2.1,0.9,3.3,0.9c1.1,0,2.2-0.3,3.3-0.9l15.1-8.7c2-1.2,3.2-3.3,3.2-5.6C79.6,61.5,78.4,59.4,76.4,58.2z M73.9,65.1l-15.1,8.7c-0.7,0.4-1.3,0.1-1.5,0c-0.2-0.1-0.8-0.5-0.8-1.3V55.1c0-0.8,0.5-1.2,0.8-1.3c0.1-0.1,0.4-0.2,0.8-0.2c0.2,0,0.5,0.1,0.7,0.2l15.1,8.7c0.7,0.4,0.7,1,0.7,1.3C74.6,64.1,74.6,64.8,73.9,65.1z"></path><path d="M97.3,30H30.7c-6.2,0-11.2,5-11.2,11.2v45.7c0,6.2,5,11.2,11.2,11.2h66.7c6.2,0,11.2-5,11.2-11.2V41.2C108.5,35,103.5,30,97.3,30z M103.5,86.8c0,3.4-2.8,6.2-6.2,6.2H30.7c-3.4,0-6.2-2.8-6.2-6.2V41.2c0-3.4,2.8-6.2,6.2-6.2h66.7c3.4,0,6.2,2.8,6.2,6.2V86.8z"></path><path d="M38.5 43h-4c-1.1 0-2 .9-2 2v4c0 1.1.9 2 2 2h4c1.1 0 2-.9 2-2v-4C40.5 43.9 39.6 43 38.5 43zM38.5 60h-4c-1.1 0-2 .9-2 2v4c0 1.1.9 2 2 2h4c1.1 0 2-.9 2-2v-4C40.5 60.9 39.6 60 38.5 60zM38.5 77h-4c-1.1 0-2 .9-2 2v4c0 1.1.9 2 2 2h4c1.1 0 2-.9 2-2v-4C40.5 77.9 39.6 77 38.5 77zM92.5 43h-4c-1.1 0-2 .9-2 2v4c0 1.1.9 2 2 2h4c1.1 0 2-.9 2-2v-4C94.5 43.9 93.6 43 92.5 43zM92.5 60h-4c-1.1 0-2 .9-2 2v4c0 1.1.9 2 2 2h4c1.1 0 2-.9 2-2v-4C94.5 60.9 93.6 60 92.5 60zM92.5 77h-4c-1.1 0-2 .9-2 2v4c0 1.1.9 2 2 2h4c1.1 0 2-.9 2-2v-4C94.5 77.9 93.6 77 92.5 77z"></path></svg>